<?xml version="1.0" encoding="utf-8"?>
<!-- Generator: Adobe Illustrator 23.0.0, SVG Export Plug-In . SVG Version: 6.00 Build 0)  -->
<svg version="1.1" id="Calque_1" xmlns="http://www.w3.org/2000/svg" xmlns:xlink="http://www.w3.org/1999/xlink" x="0px" y="0px"
	 viewBox="0 0 77.9 14.6" style="enable-background:new 0 0 77.9 14.6;" xml:space="preserve">
<style type="text/css">
	.st0{fill:#FFFFFF;}
	.st1{fill:#4E4E4E;}
</style>
<path class="st0" d="M26.6,1.5l0.1-0.1h1.6c0.1,0,0.1,0,0.1,0.1l0.1,0.1v11.5c0,0.1,0,0.1-0.1,0.1l-0.1,0.1h-1.6
	c-0.1,0-0.1,0-0.1-0.1s-0.1-0.1-0.1-0.1v-0.5v-0.1c0,0,0,0-0.1,0c-0.5,0.6-1.2,0.9-2,0.9s-1.5-0.2-2.1-0.6c-0.6-0.4-1-1-1.3-1.8
	c-0.2-0.6-0.3-1.3-0.3-2.1c0-0.8,0.1-1.5,0.3-2.1C21.3,6,21.7,5.5,22.3,5c0.6-0.4,1.3-0.6,2.2-0.6c0.8,0,1.5,0.3,2,0.9
	c0,0,0,0,0.1,0c0,0,0,0,0-0.1V1.7C26.5,1.6,26.5,1.6,26.6,1.5z M26.5,9c0-0.9-0.1-1.6-0.4-2c-0.3-0.5-0.8-0.8-1.3-0.8
	c-0.6,0-1.1,0.2-1.4,0.7C23,7.4,22.9,8.1,22.9,9c0,0.8,0.1,1.5,0.4,2s0.8,0.8,1.5,0.8c0.6,0,1.1-0.3,1.4-0.8
	C26.4,10.6,26.5,9.9,26.5,9z"/>
<path class="st0" d="M31.2,3.2C31,3,30.8,2.7,30.8,2.3s0.1-0.6,0.4-0.9c0.2-0.2,0.5-0.3,0.9-0.3s0.7,0.1,0.9,0.3s0.4,0.5,0.4,0.9
	S33.3,2.9,33,3.2c-0.2,0.2-0.5,0.3-0.9,0.3C31.8,3.5,31.5,3.4,31.2,3.2z M31.1,13.4L31,13.3V4.9c0-0.1,0-0.1,0.1-0.1l0.1-0.1h1.6
	c0.1,0,0.1,0,0.1,0.1L33,4.9v8.3c0,0.1,0,0.1-0.1,0.1l-0.1,0.1L31.1,13.4C31.2,13.4,31.2,13.4,31.1,13.4z"/>
<path class="st0" d="M37.1,12.9c-0.7-0.4-1.1-1.1-1.4-1.8c-0.2-0.5-0.3-1.2-0.3-2s0.1-1.5,0.3-2c0.2-0.8,0.7-1.3,1.4-1.8
	c0.7-0.4,1.4-0.7,2.4-0.7c0.9,0,1.7,0.2,2.4,0.7c0.7,0.4,1.1,1,1.4,1.7c0.1,0.2,0.1,0.4,0.1,0.5l0,0c0,0.1-0.1,0.2-0.2,0.2l-1.6,0.2
	l0,0c-0.1,0-0.2-0.1-0.2-0.2s0-0.1,0-0.1c0-0.1,0-0.2-0.1-0.2c-0.1-0.3-0.3-0.6-0.6-0.8c-0.3-0.2-0.7-0.3-1.1-0.3
	c-0.4,0-0.8,0.1-1.1,0.3c-0.3,0.2-0.5,0.5-0.6,0.9S37.7,8.4,37.7,9s0.1,1.1,0.2,1.5c0.1,0.4,0.3,0.7,0.6,0.9s0.7,0.4,1.1,0.4
	c0.4,0,0.8-0.1,1.2-0.3c0.3-0.2,0.5-0.5,0.6-0.9v-0.1c0,0,0,0,0-0.1s0.1-0.2,0.2-0.2l1.6,0.2c0.1,0,0.1,0,0.1,0.1c0,0,0.1,0.1,0,0.2
	c0,0.2-0.1,0.3-0.1,0.4c-0.2,0.7-0.7,1.3-1.4,1.7s-1.5,0.6-2.4,0.6C38.5,13.6,37.7,13.3,37.1,12.9z"/>
<path class="st0" d="M52.8,9v0.5c0,0.1-0.1,0.2-0.2,0.2H47c-0.1,0-0.1,0-0.1,0.1c0,0.4,0.1,0.6,0.2,0.8c0.3,0.8,1,1.2,2.1,1.2
	c0.8,0,1.4-0.3,1.9-1c0-0.1,0.1-0.1,0.2-0.1c0,0,0.1,0,0.1,0.1l1.1,0.9c0.1,0.1,0.1,0.2,0.1,0.3c-0.4,0.5-0.9,0.9-1.5,1.2
	s-1.3,0.4-2,0.4c-0.9,0-1.7-0.2-2.3-0.6c-0.6-0.4-1.1-1-1.4-1.7C45.1,10.7,45,9.8,45,8.7c0-0.7,0.1-1.2,0.2-1.6
	c0.2-0.8,0.7-1.4,1.3-1.9c0.7-0.5,1.4-0.7,2.4-0.7c2.3,0,3.6,1.2,3.9,3.5C52.8,8.4,52.8,8.7,52.8,9z M47.7,6.6
	c-0.3,0.2-0.5,0.5-0.6,0.9C47,7.7,47,7.9,47,8.2c0,0.1,0,0.1,0.1,0.1h3.6c0.1,0,0.1,0,0.1-0.1c0-0.3-0.1-0.5-0.1-0.6
	c-0.1-0.4-0.3-0.7-0.6-1c-0.3-0.2-0.7-0.3-1.2-0.3C48.4,6.3,48,6.4,47.7,6.6z"/>
<path class="st0" d="M60,4.8c0.1,0,0.1,0.1,0.1,0.3l-0.3,1.5c0,0.1-0.1,0.2-0.2,0.1c-0.2-0.1-0.4-0.1-0.6-0.1c-0.2,0-0.3,0-0.4,0
	c-0.5,0-0.9,0.2-1.2,0.5s-0.5,0.7-0.5,1.2v4.8c0,0.1,0,0.1-0.1,0.1c0,0-0.1,0.1-0.2,0.1H55c-0.1,0-0.1,0-0.1-0.1l-0.1-0.1V4.9
	c0-0.1,0-0.1,0.1-0.1L55,4.7h1.6c0.1,0,0.1,0,0.2,0.1l0.1,0.1v0.8v0.1c0,0,0,0,0.1,0c0.5-0.8,1.1-1.2,2-1.2
	C59.4,4.6,59.7,4.7,60,4.8z"/>
<path class="st0" d="M62.9,12.9c-0.7-0.5-1.1-1.1-1.4-1.9c-0.2-0.6-0.3-1.3-0.3-1.9c0-0.7,0.1-1.4,0.3-1.9c0.3-0.8,0.7-1.4,1.4-1.9
	c0.7-0.4,1.5-0.7,2.4-0.7s1.7,0.2,2.3,0.7c0.7,0.4,1.1,1.1,1.4,1.8c0.2,0.5,0.3,1.2,0.3,1.9s-0.1,1.4-0.3,1.9
	c-0.3,0.8-0.7,1.4-1.4,1.9c-0.7,0.5-1.4,0.7-2.3,0.7C64.4,13.6,63.6,13.3,62.9,12.9z M66.4,11.5c0.3-0.2,0.5-0.6,0.7-1
	c0.1-0.4,0.2-0.9,0.2-1.4c0-0.6-0.1-1.1-0.2-1.4c-0.1-0.4-0.4-0.8-0.7-1c-0.3-0.2-0.7-0.3-1.2-0.3c-0.4,0-0.8,0.1-1.1,0.3
	c-0.3,0.2-0.5,0.6-0.7,1C63.3,8,63.3,8.5,63.3,9c0,0.6,0.1,1,0.2,1.4c0.1,0.4,0.4,0.8,0.7,1c0.3,0.2,0.7,0.4,1.2,0.4
	C65.7,11.8,66.1,11.7,66.4,11.5z"/>
<path class="st0" d="M71.5,13.4l-0.1-0.1V1.7c0-0.1,0-0.1,0.1-0.1l0.1-0.1h1.6c0.1,0,0.1,0,0.2,0.1l0.1,0.1v11.5
	c0,0.1,0,0.1-0.1,0.1c0,0-0.1,0.1-0.2,0.1L71.5,13.4C71.6,13.4,71.6,13.4,71.5,13.4z"/>
<path class="st0" d="M75.9,13.4l-0.1-0.1V1.7c0-0.1,0-0.1,0.1-0.1L76,1.5h1.6c0.1,0,0.1,0,0.2,0.1l0.1,0.1v11.5c0,0.1,0,0.1-0.1,0.1
	c0,0-0.1,0.1-0.2,0.1L75.9,13.4C76,13.4,75.9,13.4,75.9,13.4z"/>
<path class="st0" d="M5.1,13.9L0.7,9.1c-0.9-1-0.9-2.6,0.1-3.5l4.7-4.5c1-0.9,2.6-0.9,3.5,0.1L13.5,6c0.9,1,0.9,2.6-0.1,3.5L8.7,14
	C7.7,14.9,6.1,14.9,5.1,13.9z"/>
<circle class="st1" cx="7.1" cy="7.5" r="1.3"/>
</svg>
